<mxfile host="app.diagrams.net" agent="Mozilla/5.0 (X11; Ubuntu; Linux x86_64; rv:109.0) Gecko/20100101 Firefox/113.0" version="24.7.6">
  <diagram name="Page-1" id="s-FZHNeOehUR4GTYO4WJ">
    <mxGraphModel dx="1434" dy="795" grid="1" gridSize="10" guides="1" tooltips="1" connect="1" arrows="1" fold="1" page="1" pageScale="1" pageWidth="1654" pageHeight="1169" background="#FFFFFF" math="0" shadow="0">
      <root>
        <mxCell id="0" />
        <mxCell id="1" parent="0" />
        <mxCell id="rrRskuTdJqjtWanswBO5-7" style="edgeStyle=orthogonalEdgeStyle;rounded=0;orthogonalLoop=1;jettySize=auto;html=1;endArrow=none;endFill=0;" edge="1" parent="1" source="rrRskuTdJqjtWanswBO5-1">
          <mxGeometry relative="1" as="geometry">
            <mxPoint x="720" y="240" as="targetPoint" />
          </mxGeometry>
        </mxCell>
        <mxCell id="rrRskuTdJqjtWanswBO5-14" value="skos:exactMatch" style="edgeLabel;html=1;align=center;verticalAlign=middle;resizable=0;points=[];" vertex="1" connectable="0" parent="rrRskuTdJqjtWanswBO5-7">
          <mxGeometry x="-0.0187" y="1" relative="1" as="geometry">
            <mxPoint as="offset" />
          </mxGeometry>
        </mxCell>
        <mxCell id="rrRskuTdJqjtWanswBO5-17" style="edgeStyle=orthogonalEdgeStyle;rounded=0;orthogonalLoop=1;jettySize=auto;html=1;entryX=0;entryY=0.5;entryDx=0;entryDy=0;startArrow=classic;startFill=1;" edge="1" parent="1" source="rrRskuTdJqjtWanswBO5-1" target="rrRskuTdJqjtWanswBO5-15">
          <mxGeometry relative="1" as="geometry" />
        </mxCell>
        <mxCell id="rrRskuTdJqjtWanswBO5-19" value="skos:related" style="edgeLabel;html=1;align=center;verticalAlign=middle;resizable=0;points=[];" vertex="1" connectable="0" parent="rrRskuTdJqjtWanswBO5-17">
          <mxGeometry x="-0.2361" y="3" relative="1" as="geometry">
            <mxPoint x="21" y="-7" as="offset" />
          </mxGeometry>
        </mxCell>
        <mxCell id="rrRskuTdJqjtWanswBO5-26" style="edgeStyle=orthogonalEdgeStyle;rounded=0;orthogonalLoop=1;jettySize=auto;html=1;entryX=0.5;entryY=0;entryDx=0;entryDy=0;" edge="1" parent="1" source="rrRskuTdJqjtWanswBO5-1" target="rrRskuTdJqjtWanswBO5-24">
          <mxGeometry relative="1" as="geometry" />
        </mxCell>
        <mxCell id="rrRskuTdJqjtWanswBO5-27" value="skos:altLabel" style="edgeLabel;html=1;align=center;verticalAlign=middle;resizable=0;points=[];" vertex="1" connectable="0" parent="rrRskuTdJqjtWanswBO5-26">
          <mxGeometry x="-0.0361" y="-2" relative="1" as="geometry">
            <mxPoint x="2" y="2" as="offset" />
          </mxGeometry>
        </mxCell>
        <mxCell id="rrRskuTdJqjtWanswBO5-1" value="&lt;font style=&quot;font-size: 50px;&quot;&gt;👩‍🚒&lt;br&gt;&lt;/font&gt;" style="whiteSpace=wrap;html=1;aspect=fixed;strokeColor=none;fillColor=none;" vertex="1" parent="1">
          <mxGeometry x="680" y="320" width="80" height="80" as="geometry" />
        </mxCell>
        <mxCell id="rrRskuTdJqjtWanswBO5-10" style="edgeStyle=orthogonalEdgeStyle;rounded=0;orthogonalLoop=1;jettySize=auto;html=1;startArrow=classic;startFill=1;endArrow=none;endFill=0;" edge="1" parent="1" source="rrRskuTdJqjtWanswBO5-2">
          <mxGeometry relative="1" as="geometry">
            <mxPoint x="720" y="240" as="targetPoint" />
          </mxGeometry>
        </mxCell>
        <mxCell id="rrRskuTdJqjtWanswBO5-2" value="👩🏽‍🚒" style="whiteSpace=wrap;html=1;aspect=fixed;fontSize=50;strokeColor=none;fillColor=none;" vertex="1" parent="1">
          <mxGeometry x="680" y="120" width="80" height="80" as="geometry" />
        </mxCell>
        <mxCell id="rrRskuTdJqjtWanswBO5-11" style="edgeStyle=orthogonalEdgeStyle;rounded=0;orthogonalLoop=1;jettySize=auto;html=1;exitX=0.5;exitY=1;exitDx=0;exitDy=0;startArrow=classic;startFill=1;endArrow=none;endFill=0;" edge="1" parent="1" source="rrRskuTdJqjtWanswBO5-3">
          <mxGeometry relative="1" as="geometry">
            <mxPoint x="720" y="240" as="targetPoint" />
            <Array as="points">
              <mxPoint x="920" y="240" />
            </Array>
          </mxGeometry>
        </mxCell>
        <mxCell id="rrRskuTdJqjtWanswBO5-3" value="👩🏽‍🚒" style="whiteSpace=wrap;html=1;aspect=fixed;fontSize=50;strokeColor=none;fillColor=none;" vertex="1" parent="1">
          <mxGeometry x="880" y="120" width="80" height="80" as="geometry" />
        </mxCell>
        <mxCell id="rrRskuTdJqjtWanswBO5-12" style="edgeStyle=orthogonalEdgeStyle;rounded=0;orthogonalLoop=1;jettySize=auto;html=1;exitX=0.5;exitY=1;exitDx=0;exitDy=0;startArrow=classic;startFill=1;endArrow=none;endFill=0;" edge="1" parent="1" source="rrRskuTdJqjtWanswBO5-4">
          <mxGeometry relative="1" as="geometry">
            <mxPoint x="920" y="240" as="targetPoint" />
            <Array as="points">
              <mxPoint x="1120" y="240" />
            </Array>
          </mxGeometry>
        </mxCell>
        <mxCell id="rrRskuTdJqjtWanswBO5-4" value="👩🏿‍🚒" style="whiteSpace=wrap;html=1;aspect=fixed;fontSize=50;strokeColor=none;fillColor=none;" vertex="1" parent="1">
          <mxGeometry x="1080" y="120" width="80" height="80" as="geometry" />
        </mxCell>
        <mxCell id="rrRskuTdJqjtWanswBO5-9" style="edgeStyle=orthogonalEdgeStyle;rounded=0;orthogonalLoop=1;jettySize=auto;html=1;startArrow=classic;startFill=1;endArrow=none;endFill=0;" edge="1" parent="1" source="rrRskuTdJqjtWanswBO5-5">
          <mxGeometry relative="1" as="geometry">
            <mxPoint x="520" y="240" as="targetPoint" />
          </mxGeometry>
        </mxCell>
        <mxCell id="rrRskuTdJqjtWanswBO5-5" value="👩🏼‍🚒" style="whiteSpace=wrap;html=1;aspect=fixed;fontSize=50;strokeColor=none;fillColor=none;" vertex="1" parent="1">
          <mxGeometry x="480" y="120" width="80" height="80" as="geometry" />
        </mxCell>
        <mxCell id="rrRskuTdJqjtWanswBO5-8" style="edgeStyle=orthogonalEdgeStyle;rounded=0;orthogonalLoop=1;jettySize=auto;html=1;exitX=0.5;exitY=1;exitDx=0;exitDy=0;startArrow=classic;startFill=1;endArrow=none;endFill=0;" edge="1" parent="1" source="rrRskuTdJqjtWanswBO5-6">
          <mxGeometry relative="1" as="geometry">
            <mxPoint x="720" y="240" as="targetPoint" />
            <Array as="points">
              <mxPoint x="320" y="240" />
            </Array>
          </mxGeometry>
        </mxCell>
        <mxCell id="rrRskuTdJqjtWanswBO5-6" value="👩🏻‍🚒" style="whiteSpace=wrap;html=1;aspect=fixed;fontSize=50;strokeColor=none;fillColor=none;" vertex="1" parent="1">
          <mxGeometry x="280" y="120" width="80" height="80" as="geometry" />
        </mxCell>
        <mxCell id="rrRskuTdJqjtWanswBO5-29" style="edgeStyle=orthogonalEdgeStyle;rounded=0;orthogonalLoop=1;jettySize=auto;html=1;entryX=0.5;entryY=0;entryDx=0;entryDy=0;" edge="1" parent="1" source="rrRskuTdJqjtWanswBO5-15" target="rrRskuTdJqjtWanswBO5-28">
          <mxGeometry relative="1" as="geometry" />
        </mxCell>
        <mxCell id="rrRskuTdJqjtWanswBO5-36" value="skos:inScheme" style="edgeLabel;html=1;align=center;verticalAlign=middle;resizable=0;points=[];" vertex="1" connectable="0" parent="rrRskuTdJqjtWanswBO5-29">
          <mxGeometry x="0.0278" relative="1" as="geometry">
            <mxPoint y="-2" as="offset" />
          </mxGeometry>
        </mxCell>
        <mxCell id="rrRskuTdJqjtWanswBO5-15" value="🚒" style="whiteSpace=wrap;html=1;aspect=fixed;fontSize=50;strokeColor=none;fillColor=none;" vertex="1" parent="1">
          <mxGeometry x="880" y="320" width="80" height="80" as="geometry" />
        </mxCell>
        <mxCell id="rrRskuTdJqjtWanswBO5-18" style="edgeStyle=orthogonalEdgeStyle;rounded=0;orthogonalLoop=1;jettySize=auto;html=1;entryX=0;entryY=0.5;entryDx=0;entryDy=0;startArrow=classic;startFill=1;" edge="1" parent="1" source="rrRskuTdJqjtWanswBO5-16" target="rrRskuTdJqjtWanswBO5-1">
          <mxGeometry relative="1" as="geometry" />
        </mxCell>
        <mxCell id="rrRskuTdJqjtWanswBO5-20" value="skos:related" style="edgeLabel;html=1;align=center;verticalAlign=middle;resizable=0;points=[];" vertex="1" connectable="0" parent="rrRskuTdJqjtWanswBO5-18">
          <mxGeometry x="-0.25" y="1" relative="1" as="geometry">
            <mxPoint x="15" y="-9" as="offset" />
          </mxGeometry>
        </mxCell>
        <mxCell id="rrRskuTdJqjtWanswBO5-22" style="edgeStyle=orthogonalEdgeStyle;rounded=0;orthogonalLoop=1;jettySize=auto;html=1;entryX=0.5;entryY=0;entryDx=0;entryDy=0;" edge="1" parent="1" source="rrRskuTdJqjtWanswBO5-16" target="rrRskuTdJqjtWanswBO5-21">
          <mxGeometry relative="1" as="geometry" />
        </mxCell>
        <mxCell id="rrRskuTdJqjtWanswBO5-23" value="skos:broader" style="edgeLabel;html=1;align=center;verticalAlign=middle;resizable=0;points=[];" vertex="1" connectable="0" parent="rrRskuTdJqjtWanswBO5-22">
          <mxGeometry x="0.0194" y="-1" relative="1" as="geometry">
            <mxPoint as="offset" />
          </mxGeometry>
        </mxCell>
        <mxCell id="rrRskuTdJqjtWanswBO5-38" style="edgeStyle=orthogonalEdgeStyle;rounded=0;orthogonalLoop=1;jettySize=auto;html=1;entryX=1;entryY=0.5;entryDx=0;entryDy=0;startArrow=classic;startFill=1;" edge="1" parent="1" source="rrRskuTdJqjtWanswBO5-16" target="rrRskuTdJqjtWanswBO5-37">
          <mxGeometry relative="1" as="geometry" />
        </mxCell>
        <mxCell id="rrRskuTdJqjtWanswBO5-39" value="skos:related" style="edgeLabel;html=1;align=center;verticalAlign=middle;resizable=0;points=[];" vertex="1" connectable="0" parent="rrRskuTdJqjtWanswBO5-38">
          <mxGeometry x="0.25" y="2" relative="1" as="geometry">
            <mxPoint x="15" y="-12" as="offset" />
          </mxGeometry>
        </mxCell>
        <mxCell id="rrRskuTdJqjtWanswBO5-16" value="👩" style="whiteSpace=wrap;html=1;aspect=fixed;fontSize=50;strokeColor=none;fillColor=none;" vertex="1" parent="1">
          <mxGeometry x="480" y="320" width="80" height="80" as="geometry" />
        </mxCell>
        <mxCell id="rrRskuTdJqjtWanswBO5-34" style="edgeStyle=orthogonalEdgeStyle;rounded=0;orthogonalLoop=1;jettySize=auto;html=1;entryX=1;entryY=0.5;entryDx=0;entryDy=0;" edge="1" parent="1" source="rrRskuTdJqjtWanswBO5-21" target="rrRskuTdJqjtWanswBO5-33">
          <mxGeometry relative="1" as="geometry" />
        </mxCell>
        <mxCell id="rrRskuTdJqjtWanswBO5-35" value="dc:identifier" style="edgeLabel;html=1;align=center;verticalAlign=middle;resizable=0;points=[];" vertex="1" connectable="0" parent="rrRskuTdJqjtWanswBO5-34">
          <mxGeometry x="-0.0417" relative="1" as="geometry">
            <mxPoint y="-10" as="offset" />
          </mxGeometry>
        </mxCell>
        <mxCell id="rrRskuTdJqjtWanswBO5-21" value="🧑" style="whiteSpace=wrap;html=1;aspect=fixed;fontSize=50;strokeColor=none;fillColor=none;" vertex="1" parent="1">
          <mxGeometry x="480" y="520" width="80" height="80" as="geometry" />
        </mxCell>
        <mxCell id="rrRskuTdJqjtWanswBO5-24" value="&quot;سيدة إطفاء&quot;@ar" style="rounded=0;whiteSpace=wrap;html=1;strokeColor=none;fillColor=none;" vertex="1" parent="1">
          <mxGeometry x="650" y="520" width="140" height="40" as="geometry" />
        </mxCell>
        <mxCell id="rrRskuTdJqjtWanswBO5-25" value="&quot;woman firefighter&quot;@en" style="rounded=0;whiteSpace=wrap;html=1;strokeColor=none;fillColor=none;" vertex="1" parent="1">
          <mxGeometry x="650" y="560" width="140" height="40" as="geometry" />
        </mxCell>
        <mxCell id="rrRskuTdJqjtWanswBO5-28" value="https://unicode.org/Public/6.0.0" style="rounded=0;whiteSpace=wrap;html=1;strokeColor=none;fillColor=none;" vertex="1" parent="1">
          <mxGeometry x="830" y="520" width="180" height="40" as="geometry" />
        </mxCell>
        <mxCell id="rrRskuTdJqjtWanswBO5-31" style="edgeStyle=orthogonalEdgeStyle;rounded=0;orthogonalLoop=1;jettySize=auto;html=1;exitX=0;exitY=0.5;exitDx=0;exitDy=0;entryX=1;entryY=0.5;entryDx=0;entryDy=0;" edge="1" parent="1" source="rrRskuTdJqjtWanswBO5-30" target="rrRskuTdJqjtWanswBO5-15">
          <mxGeometry relative="1" as="geometry" />
        </mxCell>
        <mxCell id="rrRskuTdJqjtWanswBO5-32" value="skos:member" style="edgeLabel;html=1;align=center;verticalAlign=middle;resizable=0;points=[];" vertex="1" connectable="0" parent="rrRskuTdJqjtWanswBO5-31">
          <mxGeometry x="0.375" y="-2" relative="1" as="geometry">
            <mxPoint x="23" y="-8" as="offset" />
          </mxGeometry>
        </mxCell>
        <mxCell id="rrRskuTdJqjtWanswBO5-30" value="collection/travel-and-places" style="rounded=0;whiteSpace=wrap;html=1;strokeColor=none;fillColor=none;" vertex="1" parent="1">
          <mxGeometry x="1080" y="340" width="160" height="40" as="geometry" />
        </mxCell>
        <mxCell id="rrRskuTdJqjtWanswBO5-33" value="&lt;div align=&quot;center&quot;&gt;&quot;person&quot;@en&lt;/div&gt;" style="rounded=0;whiteSpace=wrap;html=1;strokeColor=none;fillColor=none;align=center;" vertex="1" parent="1">
          <mxGeometry x="280" y="540" width="80" height="40" as="geometry" />
        </mxCell>
        <mxCell id="rrRskuTdJqjtWanswBO5-37" value="👩‍🚀" style="whiteSpace=wrap;html=1;aspect=fixed;fontSize=50;strokeColor=none;fillColor=none;" vertex="1" parent="1">
          <mxGeometry x="280" y="320" width="80" height="80" as="geometry" />
        </mxCell>
      </root>
    </mxGraphModel>
  </diagram>
</mxfile>
